<svg width="222" height="71" viewBox="0 0 222 71" fill="none" xmlns="http://www.w3.org/2000/svg">
<rect width="222" height="71" fill="#333333"/>
<path d="M39.96 39.9998H43.68C44.94 39.9998 45.96 38.9798 45.96 37.6598C45.96 36.2798 44.94 35.7998 44.94 35.7998V35.7398C44.94 35.7398 45.84 35.1998 45.84 33.9398C45.84 32.6198 44.82 31.5998 43.56 31.5998H39.96V39.9998ZM40.92 39.0998V36.2198H43.68C44.4 36.2198 45 36.8198 45 37.6598C45 38.4998 44.4 39.0998 43.68 39.0998H40.92ZM40.92 35.3798V32.4998H43.56C44.28 32.4998 44.88 33.0998 44.88 33.9398C44.88 34.7798 44.28 35.3798 43.56 35.3798H40.92ZM53.6958 40.1198C55.4958 40.1198 56.9358 39.0398 57.4158 37.2398H56.3958C55.9758 38.4998 54.9558 39.2198 53.6958 39.2198C52.0158 39.2198 50.6358 37.8398 50.6358 35.7998C50.6358 33.7598 52.0158 32.3798 53.6958 32.3798C54.9558 32.3798 55.9758 33.0998 56.3958 34.2998H57.4158C56.9358 32.5598 55.4958 31.4798 53.6958 31.4798C51.4758 31.4798 49.6758 33.2198 49.6758 35.7998C49.6758 38.3798 51.4758 40.1198 53.6958 40.1198ZM61.2014 39.9998H66.6014V39.0998H62.1614V36.2198H66.3614V35.3198H62.1614V32.4998H66.6014V31.5998H61.2014V39.9998ZM75.7866 39.9998H76.7466V32.4998H81.4266V39.9998H82.3866V31.5998H75.7866V39.9998ZM86.7061 39.9998H87.6661V36.7598H90.3661C91.6861 36.7598 92.7661 35.6798 92.7661 34.1798C92.7661 32.6798 91.6861 31.5998 90.3661 31.5998H86.7061V39.9998ZM87.6661 35.8598V32.4998H90.3661C91.1461 32.4998 91.8061 33.1598 91.8061 34.1798C91.8061 35.1998 91.1461 35.8598 90.3661 35.8598H87.6661ZM100.383 40.1198C102.603 40.1198 104.403 38.3798 104.403 35.7998C104.403 33.2198 102.603 31.4798 100.383 31.4798C98.1633 31.4798 96.3633 33.2198 96.3633 35.7998C96.3633 38.3798 98.1633 40.1198 100.383 40.1198ZM100.383 39.2198C98.7033 39.2198 97.3233 37.8398 97.3233 35.7998C97.3233 33.7598 98.7033 32.3798 100.383 32.3798C102.063 32.3798 103.443 33.7598 103.443 35.7998C103.443 37.8398 102.063 39.2198 100.383 39.2198ZM108.358 39.9998H113.758V39.0998H109.318V36.2198H113.518V35.3198H109.318V32.4998H113.758V31.5998H108.358V39.9998ZM117.777 39.9998H118.737V35.9198L122.517 39.9998H123.717L119.757 35.7398L123.477 31.5998H122.277L118.737 35.5598V31.5998H117.777V39.9998ZM129.18 39.9998H130.14V32.4998H132.9V31.5998H126.42V32.4998H129.18V39.9998ZM136.558 39.9998H139.798C141.178 39.9998 142.258 38.8598 142.258 37.3598C142.258 35.8598 141.178 34.7198 139.798 34.7198H137.518V31.5998H136.558V39.9998ZM137.518 39.0998V35.6198H139.798C140.638 35.6198 141.298 36.3398 141.298 37.3598C141.298 38.3798 140.638 39.0998 139.798 39.0998H137.518ZM143.218 39.9998H144.178V31.5998H143.218V39.9998Z" fill="white"/>
<path fill-rule="evenodd" clip-rule="evenodd" d="M161 35.4998C161 35.2236 161.224 34.9998 161.5 34.9998L177.5 34.9998C177.776 34.9998 178 35.2236 178 35.4998C178 35.7759 177.776 35.9998 177.5 35.9998L161.5 35.9998C161.224 35.9998 161 35.7759 161 35.4998Z" fill="white"/>
<path fill-rule="evenodd" clip-rule="evenodd" d="M173.646 31.6462C173.842 31.4509 174.158 31.4509 174.354 31.6462L178.207 35.4998L174.354 39.3533C174.158 39.5486 173.842 39.5486 173.646 39.3533C173.451 39.158 173.451 38.8415 173.646 38.6462L176.793 35.4998L173.646 32.3533C173.451 32.158 173.451 31.8415 173.646 31.6462Z" fill="white"/>
</svg>
